<?xml version="1.0" standalone="no"?>
<svg viewBox="0 0 200 200" xmlns="http://www.w3.org/2000/svg">
  <path fill="#FF0066" d="M25.5,-48.1C35.1,-38.7,46.2,-35.9,50.4,-29C54.6,-22.1,51.9,-11,48.7,-1.8C45.5,7.4,41.9,14.7,40.3,26.1C38.7,37.6,39.1,53,32.7,56.5C26.4,60,13.2,51.5,-0.7,52.7C-14.5,53.9,-29,64.7,-41.8,64.8C-54.5,65,-65.4,54.6,-64.6,42C-63.8,29.4,-51.1,14.7,-46.6,2.6C-42,-9.4,-45.5,-18.9,-46.6,-31.8C-47.6,-44.7,-46.2,-61.1,-38,-71.2C-29.8,-81.4,-14.9,-85.4,-3.5,-79.4C8,-73.4,16,-57.4,25.5,-48.1Z" transform="translate(100 100)" />
</svg>
