<?xml version="1.0" standalone="no"?>
<svg viewBox="0 0 200 200" xmlns="http://www.w3.org/2000/svg">
  <path fill="#FF0066" d="M37.7,-65.5C48.3,-59.3,55.8,-47.9,61.3,-36.1C66.9,-24.3,70.6,-12.2,70.6,0C70.5,12.1,66.7,24.2,62.4,38.2C58,52.1,53.2,67.9,42.7,74.7C32.2,81.6,16.1,79.4,0.5,78.5C-15,77.6,-30.1,77.9,-42.2,72C-54.2,66.1,-63.3,54,-68.8,40.9C-74.2,27.9,-76,13.9,-75.4,0.4C-74.7,-13.2,-71.5,-26.3,-64.6,-36.8C-57.7,-47.2,-46.9,-54.9,-35.5,-60.7C-24.1,-66.5,-12.1,-70.4,0.8,-71.7C13.6,-73,27.2,-71.8,37.7,-65.5Z" transform="translate(100 100)" />
</svg>
