<svg height="511.99995pt" viewBox="1 1 511.99995 511.99995" width="511.99995pt" xmlns="http://www.w3.org/2000/svg"><path d="m346.773438 332.957031c0-33.945312-18.730469-63.59375-46.398438-79.164062 11.402344-11.378907 18.464844-27.105469 18.464844-44.449219 0-34.652344-28.191406-62.839844-62.839844-62.839844l-20.015625 301.007813 110.789063.003906zm0 0" fill="#ff9100"/><path d="m256 146.503906c-34.648438 0-62.839844 28.1875-62.839844 62.839844 0 17.34375 7.0625 33.070312 18.464844 44.449219-27.667969 15.570312-46.398438 45.21875-46.398438 79.164062v114.550781l90.773438.003907zm0 0" fill="#ffda44"/><path d="m475.726562 211.660156c-5.828124-28.929687-17.246093-55.855468-33.070312-79.609375l25.71875-25.714843-62.707031-62.707032-25.71875 25.714844c-23.753907-15.824219-50.679688-27.246094-79.605469-33.074219v-36.269531h-44.34375l-20.015625 66.425781 20.015625 31.289063c87.273438 0 158.277344 71.003906 158.277344 158.277344 0 87.273437-71.003906 158.277343-158.277344 158.277343l-20.015625 33.242188 20.015625 64.488281h44.339844v-36.28125c28.925781-5.828125 55.851562-17.246094 79.601562-33.070312l25.722656 25.722656 62.707032-62.707032-25.71875-25.722656c15.824218-23.75 27.242187-50.671875 33.070312-79.601562h36.277344v-88.683594h-36.273438zm0 0" fill="#b4d2d7"/><path d="m256 414.269531c-87.273438 0-158.277344-71-158.277344-158.277343 0-87.273438 71.003906-158.277344 158.277344-158.277344v-97.714844h-44.339844v36.269531c-28.929687 5.828125-55.855468 17.246094-79.609375 33.074219l-25.714843-25.71875-62.707032 62.707031 25.714844 25.71875c-15.824219 23.753907-27.242188 50.679688-33.070312 79.605469h-36.273438v88.683594h36.277344c5.828125 28.929687 17.246094 55.851562 33.070312 79.601562l-25.71875 25.722656 62.707032 62.707032 25.722656-25.722656c23.75 15.824218 50.675781 27.242187 79.601562 33.070312v36.28125h44.339844zm0 0" fill="#e1ebf0"/></svg>