<?xml version="1.0" encoding="iso-8859-1"?>
<!-- Generator: Adobe Illustrator 19.0.0, SVG Export Plug-In . SVG Version: 6.00 Build 0)  -->
<svg version="1.1" id="Capa_1" xmlns="http://www.w3.org/2000/svg" xmlns:xlink="http://www.w3.org/1999/xlink" x="0px" y="0px"
	 viewBox="0 0 512 512" style="enable-background:new 0 0 512 512;" xml:space="preserve">
<path style="fill:#E1E6E9;" d="M283.912,491.627l-22.229,11.683c-3.557,1.87-7.806,1.87-11.364,0l-22.229-11.683
	C106.032,427.473,30.871,309.089,30.871,180.994V102.75c0-6.187,4.619-11.478,10.772-12.127
	c42.072-4.439,75.521-34.558,80.852-72.65c0.853-6.095,5.961-10.686,12.115-10.686h242.784c6.154,0,11.262,4.591,12.115,10.686
	c5.331,38.092,38.78,68.212,80.852,72.65c6.153,0.649,10.772,5.94,10.772,12.127v78.244
	C481.132,309.089,405.97,427.473,283.912,491.627z"/>
<path style="fill:#CBCBCB;" d="M470.36,90.623c-42.072-4.439-75.521-34.558-80.852-72.651c-0.853-6.095-5.961-10.686-12.115-10.686
	h-16.529c2.381,52.812,40.013,90.267,80.731,94.563c6.153,0.649,10.772,5.939,10.772,12.127v78.244
	c0,128.095-75.162,246.479-197.22,310.633l-2.566,1.349c3.009,0.879,6.273,0.596,9.103-0.892l22.229-11.683
	c122.058-64.154,197.22-182.538,197.22-310.633V102.75C481.132,96.562,476.513,91.272,470.36,90.623z"/>
<path style="fill:#4AD194;" d="M247.763,460.253c-55.349-29.091-101.387-70.902-133.138-120.912
	C83.249,289.922,66.664,233.76,66.664,176.928v-44.412c0-6.427,3.903-12.228,9.879-14.592c32.917-13.025,59.48-37.475,74.007-68.019
	c2.589-5.443,8.121-8.869,14.148-8.869h182.604c6.027,0,11.559,3.427,14.148,8.869c14.528,30.544,41.09,54.994,74.008,68.019
	c5.976,2.365,9.879,8.166,9.879,14.592v44.412c0,56.832-16.584,112.994-47.96,162.413c-31.751,50.01-77.79,91.821-133.137,120.912
	l-0.921,0.484c-4.581,2.408-10.054,2.408-14.635,0L247.763,460.253z"/>
<path style="fill:#35B79E;" d="M435.459,117.925c-0.258-0.102-0.512-0.211-0.769-0.314c-0.428-0.172-0.853-0.347-1.279-0.523
	c-0.727-0.301-1.45-0.607-2.17-0.919c-0.416-0.18-0.832-0.36-1.246-0.543c-0.769-0.342-1.533-0.692-2.295-1.046
	c-0.345-0.161-0.692-0.317-1.036-0.48c-1.096-0.52-2.185-1.051-3.265-1.597c-0.081-0.041-0.161-0.085-0.242-0.126
	c-0.999-0.508-1.991-1.027-2.975-1.557c-0.349-0.188-0.694-0.382-1.042-0.572c-0.716-0.393-1.429-0.789-2.137-1.194
	c-0.392-0.224-0.782-0.452-1.172-0.679c-0.668-0.39-1.332-0.785-1.992-1.185c-0.384-0.233-0.767-0.465-1.148-0.701
	c-0.691-0.427-1.375-0.863-2.057-1.301c-0.332-0.214-0.667-0.424-0.997-0.64c-0.932-0.61-1.856-1.23-2.771-1.86
	c-0.068-0.047-0.138-0.092-0.206-0.139c-0.983-0.68-1.954-1.373-2.917-2.076c-0.301-0.219-0.596-0.444-0.895-0.666
	c-0.661-0.491-1.32-0.985-1.972-1.486c-0.35-0.269-0.697-0.542-1.044-0.814c-0.602-0.473-1.201-0.95-1.795-1.432
	c-0.346-0.281-0.691-0.562-1.034-0.845c-0.608-0.504-1.21-1.014-1.809-1.527c-0.307-0.263-0.617-0.525-0.922-0.791
	c-0.74-0.645-1.471-1.3-2.197-1.96c-0.15-0.137-0.304-0.27-0.453-0.407c-0.87-0.798-1.727-1.608-2.574-2.427
	c-0.244-0.236-0.483-0.477-0.725-0.715c-0.602-0.591-1.201-1.185-1.791-1.786c-0.301-0.307-0.599-0.617-0.897-0.927
	c-0.529-0.548-1.053-1.1-1.572-1.657c-0.303-0.325-0.605-0.652-0.905-0.98c-0.519-0.568-1.032-1.141-1.54-1.718
	c-0.276-0.312-0.553-0.623-0.826-0.937c-0.597-0.688-1.183-1.384-1.765-2.083c-0.169-0.203-0.342-0.403-0.51-0.607
	c-0.745-0.906-1.476-1.821-2.196-2.746c-0.184-0.237-0.362-0.477-0.545-0.715c-0.533-0.694-1.061-1.39-1.579-2.094
	c-0.249-0.337-0.492-0.678-0.738-1.018c-0.446-0.618-0.888-1.238-1.324-1.864c-0.254-0.364-0.505-0.729-0.755-1.096
	c-0.428-0.628-0.849-1.26-1.265-1.895c-0.232-0.353-0.465-0.705-0.693-1.059c-0.464-0.722-0.917-1.449-1.367-2.18
	c-0.165-0.268-0.335-0.534-0.498-0.804c-0.605-0.999-1.196-2.006-1.774-3.021c-0.122-0.214-0.238-0.432-0.358-0.647
	c-0.452-0.806-0.898-1.615-1.333-2.431c-0.192-0.36-0.378-0.723-0.567-1.085c-0.356-0.683-0.708-1.369-1.051-2.059
	c-0.197-0.395-0.391-0.791-0.583-1.188c-0.146-0.301-0.299-0.599-0.443-0.902c-2.589-5.442-8.121-8.869-14.148-8.869h-91.299
	v421.507c2.513,0,5.027-0.602,7.317-1.806l0.921-0.484c55.348-29.091,101.387-70.901,133.138-120.912
	c31.376-49.419,47.96-105.581,47.96-162.413v-44.412C445.337,126.09,441.435,120.289,435.459,117.925z"/>
<path style="fill:#1E9690;" d="M435.459,117.925c-0.258-0.102-0.512-0.211-0.769-0.314c-0.428-0.172-0.853-0.347-1.279-0.523
	c-0.727-0.301-1.45-0.607-2.17-0.919c-0.416-0.18-0.832-0.36-1.246-0.543c-0.769-0.342-1.533-0.692-2.295-1.046
	c-0.345-0.161-0.692-0.317-1.036-0.48c-1.096-0.52-2.185-1.051-3.265-1.597c-0.081-0.041-0.161-0.085-0.242-0.126
	c-0.999-0.508-1.991-1.027-2.975-1.557c-0.349-0.188-0.694-0.382-1.042-0.572c-0.716-0.393-1.429-0.789-2.137-1.194
	c-0.392-0.224-0.782-0.452-1.172-0.679c-0.668-0.39-1.332-0.785-1.992-1.185c-0.384-0.233-0.767-0.465-1.148-0.701
	c-0.691-0.427-1.375-0.863-2.057-1.301c-0.332-0.214-0.667-0.424-0.997-0.64c-0.932-0.61-1.856-1.23-2.771-1.86
	c-0.068-0.047-0.138-0.092-0.206-0.139c-0.983-0.68-1.954-1.373-2.917-2.076c-0.301-0.219-0.596-0.444-0.895-0.666
	c-0.661-0.491-1.32-0.985-1.972-1.486c-0.35-0.269-0.697-0.542-1.044-0.814c-0.602-0.473-1.201-0.95-1.795-1.432
	c-0.346-0.281-0.691-0.562-1.034-0.845c-0.608-0.504-1.21-1.014-1.809-1.527c-0.307-0.263-0.617-0.525-0.922-0.791
	c-0.74-0.645-1.471-1.3-2.197-1.96c-0.15-0.137-0.304-0.27-0.453-0.407c-0.87-0.798-1.727-1.608-2.574-2.427
	c-0.244-0.236-0.483-0.477-0.725-0.715c-0.602-0.591-1.201-1.185-1.791-1.786c-0.301-0.307-0.599-0.617-0.897-0.927
	c-0.529-0.548-1.053-1.1-1.572-1.657c-0.303-0.325-0.605-0.652-0.905-0.98c-0.519-0.568-1.032-1.141-1.54-1.718
	c-0.276-0.312-0.553-0.623-0.826-0.937c-0.597-0.688-1.183-1.384-1.765-2.083c-0.169-0.203-0.342-0.403-0.51-0.607
	c-0.745-0.906-1.476-1.821-2.196-2.746c-0.184-0.237-0.362-0.477-0.545-0.715c-0.533-0.694-1.061-1.39-1.579-2.094
	c-0.249-0.337-0.492-0.678-0.738-1.018c-0.446-0.618-0.888-1.238-1.324-1.864c-0.254-0.364-0.505-0.729-0.755-1.096
	c-0.428-0.628-0.849-1.26-1.265-1.895c-0.232-0.353-0.465-0.705-0.693-1.059c-0.464-0.722-0.917-1.45-1.367-2.18
	c-0.165-0.268-0.335-0.534-0.498-0.804c-0.605-0.999-1.196-2.006-1.774-3.021c-0.122-0.214-0.238-0.432-0.358-0.647
	c-0.452-0.806-0.898-1.615-1.333-2.431c-0.192-0.36-0.378-0.723-0.567-1.085c-0.356-0.684-0.708-1.369-1.051-2.059
	c-0.197-0.395-0.391-0.791-0.583-1.188c-0.146-0.301-0.299-0.599-0.443-0.902c-2.589-5.442-8.121-8.869-14.148-8.869h-25.27
	c3.271,4.126,6.948,9.572,11.107,16.756c0.168,0.29,0.296,0.6,0.443,0.902c0.193,0.397,0.387,0.793,0.583,1.188
	c0.344,0.69,0.695,1.375,1.051,2.059c0.189,0.362,0.375,0.725,0.567,1.085c0.435,0.816,0.881,1.625,1.333,2.431
	c0.121,0.215,0.236,0.433,0.358,0.647c0.577,1.015,1.169,2.022,1.774,3.021c0.163,0.27,0.333,0.536,0.498,0.804
	c0.449,0.73,0.903,1.458,1.367,2.18c0.228,0.355,0.461,0.706,0.693,1.059c0.417,0.635,0.837,1.267,1.265,1.895
	c0.25,0.367,0.501,0.732,0.755,1.096c0.435,0.625,0.877,1.246,1.324,1.864c0.245,0.34,0.489,0.68,0.738,1.018
	c0.518,0.704,1.047,1.4,1.579,2.094c0.183,0.238,0.361,0.479,0.545,0.715c0.72,0.924,1.452,1.84,2.196,2.746
	c0.168,0.204,0.341,0.404,0.51,0.607c0.582,0.7,1.168,1.395,1.765,2.083c0.272,0.314,0.55,0.625,0.826,0.937
	c0.509,0.576,1.021,1.15,1.54,1.718c0.3,0.328,0.602,0.655,0.905,0.98c0.519,0.557,1.043,1.108,1.572,1.657
	c0.298,0.31,0.595,0.62,0.897,0.927c0.59,0.601,1.189,1.195,1.791,1.786c0.242,0.238,0.481,0.479,0.725,0.715
	c0.847,0.819,1.704,1.629,2.574,2.427c0.149,0.137,0.303,0.271,0.453,0.407c0.725,0.66,1.456,1.314,2.197,1.96
	c0.305,0.266,0.615,0.527,0.922,0.791c0.599,0.513,1.201,1.023,1.809,1.527c0.343,0.284,0.688,0.565,1.034,0.845
	c0.594,0.482,1.192,0.959,1.795,1.432c0.347,0.272,0.694,0.545,1.044,0.814c0.652,0.502,1.31,0.996,1.972,1.486
	c0.299,0.222,0.594,0.446,0.895,0.666c0.963,0.703,1.934,1.396,2.917,2.076c0.068,0.047,0.138,0.092,0.206,0.139
	c0.915,0.63,1.839,1.25,2.771,1.86c0.33,0.216,0.664,0.427,0.997,0.64c0.682,0.438,1.367,0.873,2.057,1.301
	c0.381,0.236,0.765,0.469,1.148,0.701c0.66,0.4,1.325,0.795,1.992,1.185c0.39,0.228,0.779,0.455,1.172,0.679
	c0.708,0.404,1.421,0.801,2.137,1.194c0.347,0.191,0.692,0.384,1.042,0.572c0.985,0.53,1.976,1.049,2.975,1.557
	c0.081,0.041,0.161,0.085,0.242,0.126c1.079,0.546,2.169,1.077,3.265,1.597c0.343,0.163,0.691,0.32,1.036,0.48
	c0.762,0.354,1.526,0.705,2.295,1.046c0.414,0.184,0.83,0.363,1.246,0.543c0.72,0.312,1.443,0.618,2.17,0.919
	c0.425,0.176,0.851,0.351,1.279,0.523c0.257,0.103,0.511,0.212,0.769,0.314c5.976,2.364,9.879,8.165,9.879,14.592v44.412
	c0,56.832-16.584,112.994-47.96,162.413c-27.829,43.833-66.636,85.65-113.066,114.9v0.414c2.513,0,5.027-0.602,7.317-1.806
	l0.921-0.484c55.348-29.091,101.387-70.901,133.138-120.912c31.376-49.419,47.96-105.581,47.96-162.413v-44.412
	C445.337,126.09,441.435,120.289,435.459,117.925z"/>
<path style="fill:#636A75;" d="M339.46,325.255H173.101c-8.774,0-15.887-7.113-15.887-15.887V205.039
	c0-8.774,7.113-15.887,15.887-15.887H339.46c8.774,0,15.887,7.113,15.887,15.887v104.329
	C355.347,318.142,348.234,325.255,339.46,325.255z"/>
<path style="fill:#515A66;" d="M339.46,189.152h-28.765c8.774,0,15.887,7.113,15.887,15.887v104.329
	c0,8.774-7.113,15.887-15.887,15.887h28.765c8.774,0,15.887-7.113,15.887-15.887V205.039
	C355.347,196.265,348.234,189.152,339.46,189.152z"/>
<path d="M248.993,264.738v20.747c0,4.024,3.262,7.287,7.287,7.287s7.287-3.262,7.287-7.287v-20.747
	c5.776-2.736,9.781-8.601,9.781-15.416c0-9.426-7.641-17.067-17.067-17.067s-17.067,7.641-17.067,17.067
	C239.213,256.137,243.218,262.002,248.993,264.738z"/>
<path d="M244.373,466.703L244.373,466.703l0.92,0.484c3.353,1.762,7.03,2.643,10.708,2.643c3.676,0,7.354-0.881,10.705-2.642
	l0.923-0.485c56.474-29.683,103.467-72.373,135.899-123.456c32.118-50.589,49.095-108.1,49.095-166.318v-44.412
	c0-9.5-5.686-17.887-14.485-21.368c-31.369-12.413-56.267-35.275-70.108-64.373c-3.764-7.913-11.9-13.027-20.729-13.027H164.699
	c-8.828,0-16.964,5.113-20.728,13.027c-13.84,29.098-38.739,51.96-70.108,64.373c-8.799,3.481-14.484,11.869-14.484,21.368v44.412
	c0,58.219,16.977,115.73,49.096,166.318C140.906,394.33,187.9,437.021,244.373,466.703z M73.951,176.929v-44.412
	c0-3.481,2.07-6.55,5.273-7.817c34.81-13.774,62.477-39.225,77.906-71.664c1.361-2.863,4.332-4.713,7.568-4.713h182.604
	c3.236,0,6.206,1.85,7.568,4.713c15.43,32.439,43.098,57.89,77.907,71.665c3.203,1.267,5.273,4.336,5.273,7.817v44.412
	c0,55.447-16.192,110.257-46.825,158.507c-31.069,48.936-76.153,89.867-130.374,118.367l-0.923,0.484
	c-2.459,1.294-5.395,1.293-7.855,0l-0.92-0.483c-54.223-28.5-99.307-69.431-130.377-118.368
	C90.143,287.188,73.951,232.377,73.951,176.929z"/>
<path d="M474.672,246.08c-3.925-0.888-7.827,1.575-8.713,5.501c-22.192,98.177-89.78,183.32-185.436,233.597l-22.229,11.684
	c-1.435,0.754-3.149,0.754-4.584,0l-22.229-11.684c-95.806-50.356-163.428-135.646-185.527-234
	c-0.881-3.926-4.781-6.395-8.706-5.512c-3.926,0.882-6.394,4.78-5.512,8.706c23.036,102.531,93.369,191.358,192.965,243.705
	l22.229,11.684c2.841,1.492,5.956,2.239,9.072,2.239c3.115,0,6.232-0.747,9.072-2.24l22.229-11.684
	c99.439-52.265,169.737-140.938,192.871-243.283C481.06,250.868,478.597,246.967,474.672,246.08z"/>
<path d="M471.125,83.377c-38.909-4.105-69.503-31.416-74.4-66.414C395.372,7.292,387.061,0,377.393,0H134.609
	c-9.667,0-17.978,7.292-19.331,16.963c-4.898,34.999-35.492,62.309-74.4,66.414c-9.859,1.04-17.294,9.369-17.294,19.373v78.244
	c0,11.37,0.589,22.865,1.751,34.167c0.386,3.75,3.55,6.542,7.24,6.542c0.249,0,0.501-0.013,0.754-0.039
	c4.003-0.411,6.915-3.99,6.503-7.993c-1.111-10.809-1.675-21.803-1.675-32.677V102.75c0-2.485,1.867-4.63,4.25-4.881
	c45.576-4.808,81.476-37.248,87.304-78.887c0.358-2.555,2.417-4.409,4.898-4.409h242.783c2.481,0,4.542,1.854,4.899,4.409
	c5.826,41.639,41.727,74.078,87.303,78.887c2.383,0.251,4.25,2.396,4.25,4.881v78.244c0,10.759-0.552,21.639-1.64,32.34
	c-0.407,4.003,2.509,7.579,6.512,7.986c4.001,0.41,7.579-2.509,7.987-6.512c1.138-11.188,1.714-22.564,1.714-33.814V102.75
	C488.418,92.746,480.984,84.417,471.125,83.377z"/>
<path d="M339.46,332.542c12.778,0,23.174-10.396,23.174-23.174V205.039c0-12.778-10.396-23.174-23.174-23.174h-11.981v-34.782
	c0-39.259-31.939-71.198-71.199-71.198c-39.259,0-71.199,31.939-71.199,71.198v34.782h-11.98c-12.778,0-23.174,10.396-23.174,23.174
	v104.329c0,12.778,10.396,23.174,23.174,23.174L339.46,332.542L339.46,332.542z M199.655,147.084
	c0-31.223,25.402-56.625,56.626-56.625s56.626,25.402,56.626,56.625v34.782H199.655V147.084z M164.5,309.368V205.039
	c0-4.742,3.859-8.601,8.601-8.601H339.46c4.742,0,8.601,3.858,8.601,8.601v104.329c0,4.742-3.859,8.601-8.601,8.601H173.101
	C168.358,317.969,164.5,314.11,164.5,309.368z"/>
<g>
</g>
<g>
</g>
<g>
</g>
<g>
</g>
<g>
</g>
<g>
</g>
<g>
</g>
<g>
</g>
<g>
</g>
<g>
</g>
<g>
</g>
<g>
</g>
<g>
</g>
<g>
</g>
<g>
</g>
</svg>
