<?xml version="1.0" standalone="no"?><svg xmlns="http://www.w3.org/2000/svg" viewBox="0 0 1440 320"><path fill="#4ad194" fill-opacity="1" d="M0,96L34.3,117.3C68.6,139,137,181,206,218.7C274.3,256,343,288,411,298.7C480,309,549,299,617,266.7C685.7,235,754,181,823,165.3C891.4,149,960,171,1029,154.7C1097.1,139,1166,85,1234,101.3C1302.9,117,1371,203,1406,245.3L1440,288L1440,320L1405.7,320C1371.4,320,1303,320,1234,320C1165.7,320,1097,320,1029,320C960,320,891,320,823,320C754.3,320,686,320,617,320C548.6,320,480,320,411,320C342.9,320,274,320,206,320C137.1,320,69,320,34,320L0,320Z"></path></svg>