<?xml version="1.0" standalone="no"?><svg xmlns="http://www.w3.org/2000/svg" viewBox="0 0 1440 320"><path fill="#4ad194" fill-opacity="1" d="M0,64L26.7,69.3C53.3,75,107,85,160,85.3C213.3,85,267,75,320,96C373.3,117,427,171,480,186.7C533.3,203,587,181,640,192C693.3,203,747,245,800,256C853.3,267,907,245,960,224C1013.3,203,1067,181,1120,197.3C1173.3,213,1227,267,1280,245.3C1333.3,224,1387,128,1413,80L1440,32L1440,320L1413.3,320C1386.7,320,1333,320,1280,320C1226.7,320,1173,320,1120,320C1066.7,320,1013,320,960,320C906.7,320,853,320,800,320C746.7,320,693,320,640,320C586.7,320,533,320,480,320C426.7,320,373,320,320,320C266.7,320,213,320,160,320C106.7,320,53,320,27,320L0,320Z"></path></svg>