<?xml version="1.0" standalone="no"?><svg xmlns="http://www.w3.org/2000/svg" viewBox="0 0 1440 320"><path fill="#0099ff" fill-opacity="0.9" d="M0,224L30,208C60,192,120,160,180,170.7C240,181,300,235,360,218.7C420,203,480,117,540,117.3C600,117,660,203,720,202.7C780,203,840,117,900,80C960,43,1020,53,1080,96C1140,139,1200,213,1260,218.7C1320,224,1380,160,1410,128L1440,96L1440,0L1410,0C1380,0,1320,0,1260,0C1200,0,1140,0,1080,0C1020,0,960,0,900,0C840,0,780,0,720,0C660,0,600,0,540,0C480,0,420,0,360,0C300,0,240,0,180,0C120,0,60,0,30,0L0,0Z"></path></svg>